<?xml version="1.0" encoding="UTF-8" standalone="no"?>
<svg
   xmlns:dc="http://purl.org/dc/elements/1.1/"
   xmlns:cc="http://creativecommons.org/ns#"
   xmlns:rdf="http://www.w3.org/1999/02/22-rdf-syntax-ns#"
   xmlns:svg="http://www.w3.org/2000/svg"
   xmlns="http://www.w3.org/2000/svg"
   xmlns:sodipodi="http://sodipodi.sourceforge.net/DTD/sodipodi-0.dtd"
   xmlns:inkscape="http://www.inkscape.org/namespaces/inkscape"
   inkscape:version="1.0 (4035a4fb49, 2020-05-01)"
   sodipodi:docname="noun_Scientist_2538588.svg"
   id="svg54"
   xml:space="preserve"
   style="enable-background:new 0 0 100 100;"
   viewBox="0 0 100 125"
   y="0px"
   x="0px"
   version="1.1"><metadata
     id="metadata60"><rdf:RDF><cc:Work
         rdf:about=""><dc:format>image/svg+xml</dc:format><dc:type
           rdf:resource="http://purl.org/dc/dcmitype/StillImage" /></cc:Work></rdf:RDF></metadata><defs
     id="defs58" /><sodipodi:namedview
     inkscape:current-layer="g48"
     inkscape:window-maximized="1"
     inkscape:window-y="-8"
     inkscape:window-x="-8"
     inkscape:cy="52.944733"
     inkscape:cx="43.992776"
     inkscape:zoom="4.12"
     showgrid="false"
     id="namedview56"
     inkscape:window-height="705"
     inkscape:window-width="1366"
     inkscape:pageshadow="2"
     inkscape:pageopacity="0"
     guidetolerance="10"
     gridtolerance="10"
     objecttolerance="10"
     borderopacity="1"
     bordercolor="#666666"
     pagecolor="#ffffff" /><g
     id="g48"><path
       sodipodi:nodetypes="cccccccccccsccccccssccccccccccccccccccscccccccccccccccscccccccccsccccccccsssccccccccccccccccccscccsscsccscccccsscccccccsscsccccscc"
       style="fill:none;stroke:#000000"
       id="path40"
       d="m 88.687,104.96449 c -0.007,-0.053 -0.012,-0.105 -0.024,-0.156 -0.003,-0.011 -0.002,-0.022 -0.005,-0.033 -0.1,-0.386 -0.188,-0.768 -0.276,-1.143 -0.654,-2.795 -1.331,-5.683005 -5.512,-8.218005 -0.08,-0.049 -0.165,-0.09 -0.252,-0.123 l -15.545,-5.816 -1.584,-7.403 c 0.899,-1.274 1.656,-2.673 2.247,-4.194 1.518,0.897 2.868,2.091 3.96,3.519 l 0.954,1.247 c 0.286,0.374 0.729,0.589 1.191,0.589 0.075,0 0.151,-0.006 0.228,-0.018 0.542,-0.083 0.995,-0.455 1.183,-0.971 0.996,-2.742 1.42,-6.802 1.129,-10.19 1.551,0.566 2.982,1.449 4.216,2.608 l 1.343,1.265 c 0.437,0.41 1.075,0.523 1.623,0.285 0.549,-0.237 0.905,-0.778 0.905,-1.377 v -3.027 c 0,-4.17 -1.079,-8.277 -3.083,-11.865 l 5.113,0.827 c 0.507,0.084 1.02,-0.101 1.361,-0.484 0.341,-0.384 0.462,-0.916 0.32,-1.409 l -0.461,-1.61 c -1.105,-3.851 -3.594,-7.09 -6.885,-9.09 0.97,-0.391 1.989,-0.646 3.026,-0.757 l 0.854,-0.091 c 0.537,-0.057 1.002,-0.398 1.217,-0.894 0.215,-0.495 0.148,-1.068 -0.177,-1.499 -2.131,-2.833 -4.991,-5.007 -8.214,-6.277 0.872,-0.387 1.76,-0.698 2.452,-0.839 0.585,-0.119 1.044,-0.574 1.168,-1.158 0.124,-0.585 -0.111,-1.187 -0.598,-1.533 -0.154,-0.11 -3.807,-2.698 -6.5,-3.48 -0.726,-0.211 -2.252,-0.473 -3.671,-0.691 1.261,-0.973 2.683,-1.708 4.208,-2.17 l 0.603,-0.183 c 0.633,-0.191 1.066,-0.775 1.065,-1.437 -0.001,-0.662 -0.435,-1.245 -1.069,-1.435 l -5.27,-1.581 c -0.788,-0.235 -1.446,-0.374 -2.069,-0.436 -3.161,-0.313 -6.041,0.263 -8.145,0.926 0.285,-0.439 0.606,-0.854 0.964,-1.238 l 3.931,-4.23 c 0.434,-0.468 0.525,-1.157 0.228,-1.721 -0.297,-0.565 -0.919,-0.886 -1.548,-0.784 l -7.562,1.129 c -0.048,0.007 -0.097,0.017 -0.145,0.028 -4.039,1.018 -8.121,2.616 -10.923,7.182 -1.418,-0.798 -3.764,-1.747 -6.782,-1.601 -1.138,0.052 -2.043,0.091 -2.761,0.12 -1.886,0.077 -3.765,0.359 -5.587,0.839 l -5.144,1.353 c -0.649,0.17 -1.105,0.752 -1.118,1.423 -0.013,0.671 0.422,1.268 1.065,1.463 l 0.603,0.183 c 1.525,0.462 2.947,1.197 4.208,2.17 -1.42,0.219 -2.946,0.48 -3.671,0.691 -2.693,0.782 -6.347,3.37 -6.501,3.48 -0.487,0.346 -0.722,0.948 -0.598,1.533 0.124,0.584 0.583,1.039 1.168,1.158 0.692,0.141 1.58,0.452 2.452,0.839 -3.223,1.271 -6.083,3.444 -8.214,6.277 -0.325,0.431 -0.392,1.004 -0.177,1.499 0.215,0.495 0.68,0.837 1.217,0.894 l 0.855,0.091 c 1.037,0.11 2.055,0.366 3.025,0.757 -3.291,2 -5.78,5.238 -6.885,9.09 l -0.462,1.609 c -0.142,0.494 -0.021,1.025 0.32,1.41 0.341,0.384 0.854,0.569 1.362,0.484 l 5.113,-0.827 c -2.003,3.588 -3.082,7.695 -3.082,11.865 v 3.027 c 0,0.599 0.356,1.14 0.905,1.377 0.549,0.237 1.187,0.126 1.623,-0.285 l 1.343,-1.264 c 1.231,-1.158 2.661,-2.041 4.208,-2.606 -0.287,3.347 0.136,7.432 1.137,10.187 0.187,0.516 0.64,0.888 1.182,0.971 0.542,0.081 1.086,-0.137 1.419,-0.571 l 0.954,-1.247 c 1.091,-1.427 2.44,-2.621 3.957,-3.518 0.648,1.668 1.481,3.202 2.497,4.569 0.034,0.046 0.077,0.08 0.115,0.121 l -1.478,6.906 -15.545,5.816 c -0.087,0.033 -0.172,0.074 -0.252,0.123 -4.181,2.535 -4.857,5.424005 -5.512,8.218005 -0.088,0.375 -0.177,0.757 -0.276,1.143 -0.003,0.011 -0.003,0.022 -0.005,0.033 -0.012,0.051 -0.017,0.104 -0.024,0.156 -0.006,0.05 -0.014,0.1 -0.015,0.15 0,0.012 -0.004,0.023 -0.004,0.035 0,0.034 0.008,0.066 0.01,0.1 0.004,0.055 0.007,0.109 0.016,0.163 0.008,0.047 0.022,0.092 0.034,0.137 0.013,0.048 0.026,0.095 0.044,0.141 0.018,0.046 0.04,0.09 0.062,0.134 0.021,0.042 0.042,0.084 0.067,0.124 0.026,0.041 0.055,0.079 0.085,0.117 0.03,0.038 0.059,0.076 0.092,0.111 0.032,0.035 0.068,0.065 0.104,0.097 0.037,0.032 0.073,0.064 0.113,0.093 0.04,0.029 0.084,0.053 0.127,0.078 0.04,0.023 0.079,0.047 0.122,0.066 0.051,0.023 0.105,0.041 0.158,0.058 0.031,0.01 0.058,0.025 0.09,0.033 0.01,0.002 0.019,0.001 0.028,0.004 0.115,0.027 0.23,0.045 0.35,0.045 h 74.41 c 0.12,0 0.235,-0.018 0.347,-0.044 0.01,-0.002 0.019,-10e-4 0.028,-0.004 0.032,-0.008 0.059,-0.023 0.09,-0.033 0.054,-0.018 0.107,-0.035 0.158,-0.058 0.043,-0.02 0.082,-0.043 0.122,-0.066 0.043,-0.025 0.086,-0.049 0.127,-0.078 0.04,-0.029 0.076,-0.061 0.113,-0.093 0.036,-0.031 0.071,-0.062 0.104,-0.097 0.033,-0.035 0.062,-0.073 0.092,-0.111 0.03,-0.038 0.059,-0.076 0.085,-0.117 0.025,-0.04 0.046,-0.082 0.067,-0.124 0.022,-0.044 0.044,-0.087 0.062,-0.134 0.018,-0.046 0.03,-0.093 0.044,-0.141 0.013,-0.045 0.026,-0.09 0.034,-0.137 0.01,-0.053 0.013,-0.108 0.016,-0.163 0.002,-0.034 0.01,-0.065 0.01,-0.1 0,-0.012 -0.003,-0.023 -0.004,-0.035 0,-0.05 -0.007,-0.1 -0.013,-0.151 z" /></g></svg>
