<?xml version="1.0" encoding="UTF-8" standalone="no"?>
<svg
   xmlns:dc="http://purl.org/dc/elements/1.1/"
   xmlns:cc="http://creativecommons.org/ns#"
   xmlns:rdf="http://www.w3.org/1999/02/22-rdf-syntax-ns#"
   xmlns:svg="http://www.w3.org/2000/svg"
   xmlns="http://www.w3.org/2000/svg"
   xmlns:sodipodi="http://sodipodi.sourceforge.net/DTD/sodipodi-0.dtd"
   xmlns:inkscape="http://www.inkscape.org/namespaces/inkscape"
   inkscape:version="1.0 (4035a4fb49, 2020-05-01)"
   height="90"
   width="79.024162"
   sodipodi:docname="nounChemistry.svg"
   id="svg186"
   xml:space="preserve"
   enable-background="new 0 0 100 100"
   viewBox="0 0 79.024162 90"
   y="0px"
   x="0px"
   version="1.1"><metadata
     id="metadata192"><rdf:RDF><cc:Work
         rdf:about=""><dc:format>image/svg+xml</dc:format><dc:type
           rdf:resource="http://purl.org/dc/dcmitype/StillImage" /><dc:title /></cc:Work></rdf:RDF></metadata><defs
     id="defs190" /><sodipodi:namedview
     inkscape:current-layer="svg186"
     inkscape:window-maximized="1"
     inkscape:window-y="-8"
     inkscape:window-x="-8"
     inkscape:cy="49.000553"
     inkscape:cx="13.698093"
     inkscape:zoom="3.0433876"
     fit-margin-bottom="0"
     fit-margin-right="0"
     fit-margin-left="0"
     fit-margin-top="0"
     showgrid="false"
     id="namedview188"
     inkscape:window-height="705"
     inkscape:window-width="1366"
     inkscape:pageshadow="2"
     inkscape:pageopacity="0"
     guidetolerance="10"
     gridtolerance="10"
     objecttolerance="10"
     borderopacity="1"
     bordercolor="#666666"
     pagecolor="#ffffff"
     inkscape:document-rotation="0" /><g
     style="fill:none;stroke:#000000"
     transform="translate(-10.487921,-5)"
     id="g180"><g
       style="fill:none;stroke:#000000"
       id="g178"><g
         style="fill:none;stroke:#000000"
         id="g176"><path
           id="path172"
           d="M 88.316,84.086 62.675,45.633 C 62.012,44.639 61.662,43.482 61.662,42.287 V 21.138 h 3.563 c 1.557,0 2.825,-1.267 2.825,-2.824 V 7.825 C 68.049,6.267 66.782,5 65.225,5 H 34.775 C 33.218,5 31.95,6.267 31.95,7.825 v 10.489 c 0,1.557 1.267,2.824 2.825,2.824 h 3.563 v 21.149 c 0,1.195 -0.35,2.352 -1.013,3.346 L 11.684,84.086 c -1.461,2.19 -1.591,4.885 -0.349,7.206 1.242,2.322 3.556,3.708 6.189,3.708 h 64.951 c 2.633,0 4.947,-1.386 6.19,-3.708 1.242,-2.321 1.112,-5.015 -0.349,-7.206 z"
           sodipodi:nodetypes="ccscsscssssscscccsscc"
           style="fill:none;stroke:#000000" /></g></g></g></svg>
