<?xml version="1.0" encoding="UTF-8" standalone="no"?>
<svg
   xmlns:dc="http://purl.org/dc/elements/1.1/"
   xmlns:cc="http://creativecommons.org/ns#"
   xmlns:rdf="http://www.w3.org/1999/02/22-rdf-syntax-ns#"
   xmlns:svg="http://www.w3.org/2000/svg"
   xmlns="http://www.w3.org/2000/svg"
   xmlns:sodipodi="http://sodipodi.sourceforge.net/DTD/sodipodi-0.dtd"
   xmlns:inkscape="http://www.inkscape.org/namespaces/inkscape"
   height="75.780998"
   width="59.070923"
   inkscape:version="1.0 (4035a4fb49, 2020-05-01)"
   sodipodi:docname="nounPickle.svg"
   id="svg130"
   xml:space="preserve"
   enable-background="new 0 0 100 100"
   viewBox="0 0 59.070923 75.780998"
   y="0px"
   x="0px"
   version="1.1"><metadata
     id="metadata136"><rdf:RDF><cc:Work
         rdf:about=""><dc:format>image/svg+xml</dc:format><dc:type
           rdf:resource="http://purl.org/dc/dcmitype/StillImage" /><dc:title></dc:title></cc:Work></rdf:RDF></metadata><defs
     id="defs134" /><sodipodi:namedview
     fit-margin-bottom="0"
     fit-margin-right="0"
     fit-margin-left="0"
     fit-margin-top="0"
     inkscape:current-layer="svg130"
     inkscape:window-maximized="1"
     inkscape:window-y="-8"
     inkscape:window-x="-8"
     inkscape:cy="31.337955"
     inkscape:cx="18.61585"
     inkscape:zoom="4.304"
     showgrid="false"
     id="namedview132"
     inkscape:window-height="705"
     inkscape:window-width="1366"
     inkscape:pageshadow="2"
     inkscape:pageopacity="0"
     guidetolerance="10"
     gridtolerance="10"
     objecttolerance="10"
     borderopacity="1"
     bordercolor="#666666"
     pagecolor="#ffffff" /><g
     transform="translate(-20.464076,-12.11)"
     id="g120"
     display="none"><rect
       id="rect112"
       height="95"
       width="95"
       stroke-miterlimit="10"
       stroke="#b4b4b4"
       fill="#000000"
       display="inline"
       y="-86.5"
       x="53.5" /><rect
       id="rect114"
       height="95"
       width="95"
       stroke-miterlimit="10"
       stroke="#b4b4b4"
       fill="#000000"
       display="inline"
       y="35.5"
       x="53.5" /><rect
       id="rect116"
       height="95"
       width="95"
       stroke-miterlimit="10"
       stroke="#b4b4b4"
       fill="#000000"
       display="inline"
       y="35.5"
       x="-68.5" /><rect
       id="rect118"
       height="95"
       width="95"
       stroke-miterlimit="10"
       stroke="#b4b4b4"
       fill="#000000"
       display="inline"
       y="-86.5"
       x="-68.5" /></g><g
     transform="translate(-20.464076,-12.11)"
     id="g124"><path
       id="path122"
       d="m 40.669,71.671 c 0.499,0.554 0.455,1.407 -0.099,1.906 -0.796,0.718 -1.803,1.071 -2.812,1.071 -1.165,0 -2.334,-0.47 -3.188,-1.394 -0.787,-0.852 -1.192,-1.951 -1.141,-3.094 0.051,-1.116 0.533,-2.141 1.359,-2.886 0.551,-0.499 1.405,-0.457 1.906,0.098 0.5,0.553 0.456,1.407 -0.098,1.906 -0.286,0.258 -0.453,0.615 -0.471,1.004 -0.019,0.417 0.132,0.822 0.426,1.139 0.596,0.643 1.587,0.712 2.208,0.151 0.556,-0.499 1.41,-0.457 1.91,0.099 z M 60.225,46.734 c -0.009,0 -0.018,0 -0.026,0 -0.733,0 -1.335,0.588 -1.349,1.325 -0.014,0.745 0.579,1.361 1.324,1.375 0.886,0.017 1.599,0.721 1.591,1.568 -0.005,0.394 -0.165,0.764 -0.45,1.042 -0.296,0.287 -0.688,0.443 -1.11,0.443 -0.019,0 -0.039,-0.001 -0.058,0 -0.733,0 -1.335,0.588 -1.349,1.325 -0.014,0.746 0.579,1.361 1.324,1.375 0.028,0 0.056,0.001 0.084,0.001 1.127,0 2.186,-0.427 2.988,-1.206 0.807,-0.783 1.258,-1.83 1.27,-2.951 0.023,-2.326 -1.879,-4.253 -4.239,-4.297 z M 59.28,28.99 c 0.315,0.676 1.12,0.969 1.794,0.652 0.676,-0.315 0.968,-1.119 0.651,-1.794 -0.982,-2.104 -3.538,-3.067 -5.7,-2.147 -1.073,0.458 -1.889,1.301 -2.297,2.373 -0.402,1.056 -0.357,2.205 0.127,3.236 0.229,0.489 0.716,0.776 1.223,0.776 0.192,0 0.388,-0.041 0.573,-0.128 0.675,-0.317 0.965,-1.121 0.647,-1.796 -0.17,-0.361 -0.187,-0.762 -0.048,-1.127 0.146,-0.38 0.441,-0.682 0.834,-0.85 0.836,-0.358 1.821,0.003 2.196,0.805 z m 20.255,10.093 c 0,2.413 -1.576,4.496 -3.823,5.258 -0.611,2.499 -1.37,5.104 -2.266,7.771 0.861,0.993 1.34,2.247 1.344,3.581 0.004,1.481 -0.572,2.876 -1.623,3.93 -0.893,0.896 -2.037,1.455 -3.277,1.614 -2.432,5.257 -5.655,10.33 -9.203,14.485 0.21,0.581 0.323,1.194 0.331,1.815 0.018,1.494 -0.549,2.899 -1.596,3.958 -1.05,1.062 -2.455,1.647 -3.956,1.647 -0.753,0 -1.491,-0.153 -2.181,-0.448 -4.728,3.45 -9.646,5.197 -14.638,5.197 -1.425,0 -2.87,-0.145 -4.297,-0.432 -7.798,-1.564 -13.635,-8.812 -13.879,-17.234 -0.175,-6.006 2.996,-10.476 6.26,-14.192 -0.299,-0.662 -0.465,-1.369 -0.487,-2.095 -0.045,-1.486 0.498,-2.889 1.528,-3.952 1.414,-1.458 3.584,-2.034 5.585,-1.464 3.432,-4.543 6.087,-9.787 7.37,-14.539 -1.334,-1.037 -2.165,-2.612 -2.203,-4.306 -0.034,-1.472 0.517,-2.864 1.55,-3.921 0.865,-0.885 1.979,-1.45 3.201,-1.634 0.728,-2.05 1.558,-3.664 2.572,-5.017 3.311,-4.381 8.621,-6.995 14.209,-6.995 6.458,0 12.193,3.457 14.968,9.022 1.687,3.41 2.533,7.307 2.45,11.276 -0.015,0.731 -0.054,1.49 -0.119,2.297 1.368,1.042 2.18,2.633 2.18,4.378 z m -3.4,0 c 0,-0.827 -0.495,-1.572 -1.292,-1.946 -0.654,-0.307 -1.043,-0.995 -0.969,-1.713 0.116,-1.125 0.183,-2.134 0.202,-3.086 0.071,-3.425 -0.653,-6.777 -2.097,-9.694 -2.227,-4.465 -6.685,-7.134 -11.923,-7.134 -4.596,0 -8.784,2.055 -11.492,5.639 -0.957,1.275 -1.73,2.912 -2.432,5.147 -0.238,0.76 -0.97,1.254 -1.766,1.185 l -0.202,-0.022 c -0.678,0.014 -1.232,0.236 -1.659,0.673 -0.389,0.397 -0.595,0.917 -0.583,1.466 0.02,0.859 0.58,1.65 1.429,2.015 0.758,0.327 1.172,1.151 0.981,1.954 l -0.112,0.479 c -1.317,5.44 -4.346,11.541 -8.304,16.727 -0.21,0.273 -0.427,0.541 -0.644,0.808 l -0.064,0.079 c -0.532,0.654 -1.461,0.819 -2.188,0.39 -0.39,-0.231 -0.802,-0.349 -1.226,-0.349 -0.613,0 -1.175,0.231 -1.583,0.651 -0.385,0.397 -0.587,0.923 -0.57,1.48 0.019,0.591 0.291,1.048 0.517,1.328 0.525,0.651 0.499,1.589 -0.063,2.209 -3.234,3.569 -6.379,7.494 -6.226,12.756 0.195,6.745 4.989,12.764 11.149,14 5.767,1.16 11.527,-0.464 17.08,-4.795 0.601,-0.466 1.437,-0.479 2.048,-0.033 0.278,0.203 0.733,0.445 1.318,0.445 0.586,0 1.132,-0.226 1.538,-0.637 0.402,-0.407 0.62,-0.949 0.613,-1.526 -0.005,-0.415 -0.134,-0.824 -0.372,-1.183 -0.427,-0.644 -0.366,-1.496 0.149,-2.072 3.842,-4.302 7.335,-9.793 9.837,-15.461 0.292,-0.662 0.973,-1.066 1.691,-1.008 0.075,0.006 0.148,0.015 0.223,0.025 0.007,0 0.014,0 0.02,0 0.61,0 1.174,-0.234 1.595,-0.656 0.408,-0.409 0.632,-0.948 0.63,-1.519 -0.002,-0.677 -0.334,-1.308 -0.911,-1.73 -0.602,-0.441 -0.846,-1.223 -0.602,-1.928 1.142,-3.292 2.072,-6.489 2.769,-9.504 0.162,-0.703 0.75,-1.227 1.467,-1.307 1.155,-0.132 2.024,-1.057 2.024,-2.153 z"
       fill="#000000" /></g></svg>
