<?xml version="1.0" encoding="UTF-8" standalone="no"?>
<svg
   xmlns:dc="http://purl.org/dc/elements/1.1/"
   xmlns:cc="http://creativecommons.org/ns#"
   xmlns:rdf="http://www.w3.org/1999/02/22-rdf-syntax-ns#"
   xmlns:svg="http://www.w3.org/2000/svg"
   xmlns="http://www.w3.org/2000/svg"
   xmlns:sodipodi="http://sodipodi.sourceforge.net/DTD/sodipodi-0.dtd"
   xmlns:inkscape="http://www.inkscape.org/namespaces/inkscape"
   version="1.1"
   x="0px"
   y="0px"
   viewBox="0 0 79.024162 90"
   enable-background="new 0 0 100 100"
   xml:space="preserve"
   id="svg186"
   sodipodi:docname="nounChemistry.svg"
   width="79.024162"
   height="90"
   inkscape:version="1.0 (4035a4fb49, 2020-05-01)"><metadata
     id="metadata192"><rdf:RDF><cc:Work
         rdf:about=""><dc:format>image/svg+xml</dc:format><dc:type
           rdf:resource="http://purl.org/dc/dcmitype/StillImage" /><dc:title /></cc:Work></rdf:RDF></metadata><defs
     id="defs190" /><sodipodi:namedview
     inkscape:document-rotation="0"
     pagecolor="#ffffff"
     bordercolor="#666666"
     borderopacity="1"
     objecttolerance="10"
     gridtolerance="10"
     guidetolerance="10"
     inkscape:pageopacity="0"
     inkscape:pageshadow="2"
     inkscape:window-width="1366"
     inkscape:window-height="705"
     id="namedview188"
     showgrid="false"
     fit-margin-top="0"
     fit-margin-left="0"
     fit-margin-right="0"
     fit-margin-bottom="0"
     inkscape:zoom="4.304"
     inkscape:cx="29.842574"
     inkscape:cy="52.941557"
     inkscape:window-x="-8"
     inkscape:window-y="-8"
     inkscape:window-maximized="1"
     inkscape:current-layer="svg186" /><g
     id="g180"
     transform="translate(-10.487921,-5)"><g
       id="g178"><g
         id="g176"><path
           fill="none"
           d="m 65.225,20.149 c 1.012,0 1.836,-0.823 1.836,-1.835 V 7.825 c 0,-1.012 -0.823,-1.836 -1.836,-1.836 h -30.45 c -1.012,0 -1.836,0.824 -1.836,1.836 v 10.489 c 0,1.012 0.823,1.835 1.836,1.835 z"
           id="path166" /><path
           fill="none"
           d="M 57.159,56.905 C 57.099,56.815 57,56.762 56.893,56.762 H 43.107 c -0.107,0 -0.206,0.053 -0.266,0.143 L 24.897,83.816 c -0.096,0.144 -0.043,0.277 -0.016,0.328 0.028,0.051 0.109,0.169 0.282,0.169 h 49.675 c 0.173,0 0.254,-0.118 0.282,-0.169 0.028,-0.051 0.08,-0.184 -0.016,-0.328 z"
           id="path168" /><path
           fill="none"
           d="M 61.852,46.181 C 61.08,45.025 60.673,43.678 60.673,42.287 V 21.138 H 39.327 v 21.149 c 0,1.391 -0.408,2.737 -1.179,3.894 L 12.507,84.635 c -1.255,1.882 -1.367,4.197 -0.3,6.191 1.067,1.994 3.055,3.185 5.317,3.185 h 64.951 c 2.262,0 4.25,-1.191 5.317,-3.185 1.067,-1.994 0.955,-4.309 -0.3,-6.191 z m 14.139,38.43 c -0.228,0.427 -0.67,0.692 -1.154,0.692 H 25.163 c -0.483,0 -0.926,-0.265 -1.154,-0.692 -0.228,-0.426 -0.203,-0.942 0.065,-1.343 L 42.019,56.357 c 0.243,-0.365 0.65,-0.583 1.089,-0.583 h 13.785 c 0.438,0 0.846,0.218 1.089,0.583 l 17.944,26.911 c 0.268,0.401 0.293,0.916 0.065,1.343 z"
           id="path170" /><path
           style="fill:none;stroke:#000000"
           sodipodi:nodetypes="ccscsscssssscscccsscc"
           d="M 88.316,84.086 62.675,45.633 C 62.012,44.639 61.662,43.482 61.662,42.287 V 21.138 h 3.563 c 1.557,0 2.825,-1.267 2.825,-2.824 V 7.825 C 68.049,6.267 66.782,5 65.225,5 H 34.775 C 33.218,5 31.95,6.267 31.95,7.825 v 10.489 c 0,1.557 1.267,2.824 2.825,2.824 h 3.563 v 21.149 c 0,1.195 -0.35,2.352 -1.013,3.346 L 11.684,84.086 c -1.461,2.19 -1.591,4.885 -0.349,7.206 1.242,2.322 3.556,3.708 6.189,3.708 h 64.951 c 2.633,0 4.947,-1.386 6.19,-3.708 1.242,-2.321 1.112,-5.015 -0.349,-7.206 z"
           id="path172" /></g></g></g></svg>
