<?xml version="1.0" encoding="UTF-8" standalone="no"?>
<svg
   xmlns:dc="http://purl.org/dc/elements/1.1/"
   xmlns:cc="http://creativecommons.org/ns#"
   xmlns:rdf="http://www.w3.org/1999/02/22-rdf-syntax-ns#"
   xmlns:svg="http://www.w3.org/2000/svg"
   xmlns="http://www.w3.org/2000/svg"
   xmlns:sodipodi="http://sodipodi.sourceforge.net/DTD/sodipodi-0.dtd"
   xmlns:inkscape="http://www.inkscape.org/namespaces/inkscape"
   version="1.1"
   x="0px"
   y="0px"
   viewBox="0 0 59.070923 75.780998"
   enable-background="new 0 0 100 100"
   xml:space="preserve"
   id="svg130"
   sodipodi:docname="nounPickle.svg"
   inkscape:version="1.0 (4035a4fb49, 2020-05-01)"
   width="59.070923"
   height="75.780998"><metadata
     id="metadata136"><rdf:RDF><cc:Work
         rdf:about=""><dc:format>image/svg+xml</dc:format><dc:type
           rdf:resource="http://purl.org/dc/dcmitype/StillImage" /><dc:title /></cc:Work></rdf:RDF></metadata><defs
     id="defs134" /><sodipodi:namedview
     inkscape:document-rotation="0"
     pagecolor="#ffffff"
     bordercolor="#666666"
     borderopacity="1"
     objecttolerance="10"
     gridtolerance="10"
     guidetolerance="10"
     inkscape:pageopacity="0"
     inkscape:pageshadow="2"
     inkscape:window-width="1366"
     inkscape:window-height="705"
     id="namedview132"
     showgrid="false"
     inkscape:zoom="4.304"
     inkscape:cx="35.01798"
     inkscape:cy="37.419933"
     inkscape:window-x="-8"
     inkscape:window-y="-8"
     inkscape:window-maximized="1"
     inkscape:current-layer="g124"
     fit-margin-top="0"
     fit-margin-left="0"
     fit-margin-right="0"
     fit-margin-bottom="0" /><g
     display="none"
     id="g120"
     transform="translate(-20.464076,-12.11)"><rect
       x="53.5"
       y="-86.5"
       display="inline"
       fill="#000000"
       stroke="#b4b4b4"
       stroke-miterlimit="10"
       width="95"
       height="95"
       id="rect112" /><rect
       x="53.5"
       y="35.5"
       display="inline"
       fill="#000000"
       stroke="#b4b4b4"
       stroke-miterlimit="10"
       width="95"
       height="95"
       id="rect114" /><rect
       x="-68.5"
       y="35.5"
       display="inline"
       fill="#000000"
       stroke="#b4b4b4"
       stroke-miterlimit="10"
       width="95"
       height="95"
       id="rect116" /><rect
       x="-68.5"
       y="-86.5"
       display="inline"
       fill="#000000"
       stroke="#b4b4b4"
       stroke-miterlimit="10"
       width="95"
       height="95"
       id="rect118" /></g><g
     id="g124"
     transform="translate(-20.464076,-12.11)"><path
       style="fill:none;stroke:#000000"
       sodipodi:nodetypes="sccccccccscscccccccccccscccs"
       fill="#000000"
       d="m 79.535,39.083 c 0,2.413 -1.576,4.496 -3.823,5.258 -0.611,2.499 -1.37,5.104 -2.266,7.771 0.861,0.993 1.34,2.247 1.344,3.581 0.004,1.481 -0.572,2.876 -1.623,3.93 -0.893,0.896 -2.037,1.455 -3.277,1.614 -2.432,5.257 -5.655,10.33 -9.203,14.485 0.21,0.581 0.323,1.194 0.331,1.815 0.018,1.494 -0.549,2.899 -1.596,3.958 -1.05,1.062 -2.455,1.647 -3.956,1.647 -0.753,0 -1.491,-0.153 -2.181,-0.448 -4.728,3.45 -9.646,5.197 -14.638,5.197 -1.425,0 -2.87,-0.145 -4.297,-0.432 -7.798,-1.564 -13.635,-8.812 -13.879,-17.234 -0.175,-6.006 2.996,-10.476 6.26,-14.192 -0.299,-0.662 -0.465,-1.369 -0.487,-2.095 -0.045,-1.486 0.498,-2.889 1.528,-3.952 1.414,-1.458 3.584,-2.034 5.585,-1.464 3.432,-4.543 6.087,-9.787 7.37,-14.539 -1.334,-1.037 -2.165,-2.612 -2.203,-4.306 -0.034,-1.472 0.517,-2.864 1.55,-3.921 0.865,-0.885 1.979,-1.45 3.201,-1.634 0.728,-2.05 1.558,-3.664 2.572,-5.017 3.311,-4.381 8.621,-6.995 14.209,-6.995 6.458,0 12.193,3.457 14.968,9.022 1.687,3.41 2.533,7.307 2.45,11.276 -0.015,0.731 -0.054,1.49 -0.119,2.297 1.368,1.042 2.18,2.633 2.18,4.378 z"
       id="path122" /></g></svg>
