<?xml version="1.0" encoding="UTF-8" standalone="no"?>
<svg
   xmlns:dc="http://purl.org/dc/elements/1.1/"
   xmlns:cc="http://creativecommons.org/ns#"
   xmlns:rdf="http://www.w3.org/1999/02/22-rdf-syntax-ns#"
   xmlns:svg="http://www.w3.org/2000/svg"
   xmlns="http://www.w3.org/2000/svg"
   xmlns:sodipodi="http://sodipodi.sourceforge.net/DTD/sodipodi-0.dtd"
   xmlns:inkscape="http://www.inkscape.org/namespaces/inkscape"
   inkscape:version="1.0 (4035a4fb49, 2020-05-01)"
   height="36.283001"
   width="57.764"
   sodipodi:docname="nounTherapy.svg"
   id="svg78"
   xml:space="preserve"
   enable-background="new 0 0 100 100"
   viewBox="0 0 57.764 36.283001"
   y="0px"
   x="0px"
   version="1.1"><metadata
     id="metadata84"><rdf:RDF><cc:Work
         rdf:about=""><dc:format>image/svg+xml</dc:format><dc:type
           rdf:resource="http://purl.org/dc/dcmitype/StillImage" /><dc:title></dc:title></cc:Work></rdf:RDF></metadata><defs
     id="defs82" /><sodipodi:namedview
     inkscape:current-layer="svg78"
     inkscape:window-maximized="0"
     inkscape:window-y="0"
     inkscape:window-x="76"
     inkscape:cy="22.495"
     inkscape:cx="49.253"
     inkscape:zoom="4.12"
     fit-margin-bottom="0"
     fit-margin-right="0"
     fit-margin-left="0"
     fit-margin-top="0"
     showgrid="false"
     id="namedview80"
     inkscape:window-height="728"
     inkscape:window-width="1274"
     inkscape:pageshadow="2"
     inkscape:pageopacity="0"
     guidetolerance="10"
     gridtolerance="10"
     objecttolerance="10"
     borderopacity="1"
     bordercolor="#666666"
     pagecolor="#ffffff" /><path
     id="path48"
     d="m 10.448,10.229 c 2.818,-0.01 5.1,-2.29 5.117,-5.112 C 15.548,2.293 13.266,0.005 10.448,0 7.619,0.005 5.333,2.293 5.333,5.117 c 0,2.822 2.286,5.102 5.115,5.112 z" /><polygon
     transform="translate(-0.747,-40.005)"
     id="polygon50"
     points="0.747,55.995 5.491,50.89 25.305,69.317 58.511,69.317 58.511,76.288 22.564,76.288 " /><path
     id="path52"
     d="m 52.612,26.986 c -0.721,0 -1.454,-0.197 -2.107,-0.626 l -8.852,-5.756 -11.845,5.972 c -1.403,0.708 -3.091,0.496 -4.278,-0.531 L 14.896,16.836 c -1.822,-1.637 -2.332,-4.315 -0.932,-5.933 1.402,-1.616 4.067,-2.263 6.262,-0.321 l 8.804,7.627 11.126,-5.523 c 1.23,-0.62 2.699,-0.539 3.856,0.211 l 10.714,6.976 c 1.794,1.166 2.3,3.568 1.135,5.354 -0.743,1.143 -1.981,1.759 -3.249,1.759 z" /></svg>
